M48
INCH,TZ
T1C0.014
T2C0.039
%
G90
G05
T1
X044362Y-034761
X044362Y-034978
X044362Y-035214
X044362Y-035450
X044362Y-035686
X044362Y-035922
X044362Y-036139
X044362Y-040661
X044362Y-040878
X044362Y-041114
X044362Y-041350
X044362Y-041586
X044362Y-041822
X044362Y-042039
X044638Y-034761
X044638Y-034978
X044638Y-035214
X044638Y-035450
X044638Y-035686
X044638Y-035922
X044638Y-036139
X044638Y-040661
X044638Y-040878
X044638Y-041114
X044638Y-041350
X044638Y-041586
X044638Y-041822
X044638Y-042039
T2
X041920Y-035780
X047140Y-041520
T0
M30
