G04 #@! TF.FileFunction,Legend,Top*
%FSLAX46Y46*%
G04 Gerber Fmt 4.6, Leading zero omitted, Abs format (unit mm)*
G04 Created by KiCad (PCBNEW (2015-11-29 BZR 6336, Git 7b0d981)-product) date Po 7. prosinec 2015, 17:54:50 CET*
%MOMM*%
G01*
G04 APERTURE LIST*
%ADD10C,0.100000*%
%ADD11C,0.200000*%
%ADD12C,0.300000*%
%ADD13C,0.150000*%
G04 APERTURE END LIST*
D10*
D11*
X124927919Y-106970740D02*
X123840350Y-106463598D01*
X123961098Y-106204653D01*
X124085336Y-106073436D01*
X124237214Y-106018157D01*
X124364941Y-106014667D01*
X124596247Y-106059476D01*
X124751614Y-106131925D01*
X124934621Y-106280313D01*
X125014049Y-106380401D01*
X125069327Y-106532278D01*
X125048668Y-106711794D01*
X124927919Y-106970740D01*
X125652408Y-105417069D02*
X125082729Y-105151424D01*
X124955001Y-105154914D01*
X124854913Y-105234342D01*
X124758314Y-105441498D01*
X124761804Y-105569226D01*
X125600619Y-105392920D02*
X125604109Y-105520648D01*
X125483361Y-105779593D01*
X125383272Y-105859021D01*
X125255545Y-105862511D01*
X125151967Y-105814212D01*
X125072538Y-105714124D01*
X125069048Y-105586396D01*
X125189796Y-105327451D01*
X125186307Y-105199723D01*
X125893904Y-104899180D02*
X125168858Y-104561085D01*
X125376014Y-104657684D02*
X125296586Y-104557595D01*
X125268946Y-104481657D01*
X125265456Y-104353929D01*
X125313755Y-104250351D01*
X126207849Y-104225923D02*
X125120280Y-103718781D01*
X125841836Y-103929147D02*
X126401046Y-103811610D01*
X125676000Y-103473516D02*
X125897115Y-104081025D01*
X126542454Y-103373148D02*
X126666692Y-103241931D01*
X126787440Y-102982986D01*
X126783950Y-102855258D01*
X126756311Y-102779319D01*
X126676883Y-102679231D01*
X126573305Y-102630932D01*
X126445577Y-102634421D01*
X126369638Y-102662061D01*
X126269550Y-102741490D01*
X126121163Y-102924496D01*
X126021074Y-103003925D01*
X125945135Y-103031564D01*
X125817407Y-103035054D01*
X125713830Y-102986755D01*
X125634401Y-102886666D01*
X125606762Y-102810728D01*
X125603272Y-102683000D01*
X125724020Y-102424055D01*
X125848258Y-102292837D01*
X126303890Y-102127001D02*
X126497087Y-101712688D01*
X126013815Y-101802587D02*
X126946018Y-102237280D01*
X127073745Y-102233790D01*
X127173834Y-102154361D01*
X127222133Y-102050783D01*
X127608527Y-101222159D02*
X127038848Y-100956514D01*
X126911120Y-100960004D01*
X126811031Y-101039432D01*
X126714433Y-101246588D01*
X126717923Y-101374316D01*
X127556738Y-101198010D02*
X127560227Y-101325738D01*
X127439479Y-101584683D01*
X127339391Y-101664111D01*
X127211664Y-101667601D01*
X127108086Y-101619302D01*
X127028657Y-101519214D01*
X127025167Y-101391486D01*
X127145915Y-101132541D01*
X127142425Y-101004813D01*
X127850023Y-100704270D02*
X127124976Y-100366175D01*
X127332133Y-100462774D02*
X127252704Y-100362685D01*
X127225065Y-100286747D01*
X127221575Y-100159019D01*
X127269874Y-100055441D01*
X126444331Y-92723686D02*
X126947913Y-92226153D01*
X126243084Y-92292111D01*
X126464921Y-91190372D02*
X126706417Y-91708263D01*
X126585669Y-91449318D02*
X125679361Y-91871936D01*
X125849083Y-91897877D01*
X125975647Y-91943943D01*
X126059054Y-92010133D01*
X126197484Y-90842204D02*
X126220517Y-90778922D01*
X126283799Y-90801955D01*
X126260766Y-90865237D01*
X126197484Y-90842204D01*
X126283799Y-90801955D01*
X125282684Y-90795907D02*
X125219402Y-90772874D01*
X125135995Y-90706683D01*
X125035371Y-90490895D01*
X125038279Y-90384456D01*
X125061312Y-90321173D01*
X125127503Y-90237767D01*
X125213818Y-90197517D01*
X125363415Y-90180301D01*
X126122801Y-90456695D01*
X125861180Y-89895647D01*
X121543154Y-87004099D02*
X121013235Y-87852147D01*
X121058555Y-86701288D02*
X121119193Y-87412995D01*
X120528635Y-87549336D02*
X121316046Y-87367548D01*
X120331656Y-86247071D02*
X120054079Y-86691287D01*
X120043994Y-86797288D01*
X120099526Y-86888139D01*
X120261060Y-86989077D01*
X120367060Y-86999162D01*
X120306422Y-86287454D02*
X120412422Y-86297539D01*
X120614339Y-86423711D01*
X120669871Y-86514563D01*
X120659786Y-86620563D01*
X120609318Y-86701330D01*
X120518466Y-86756862D01*
X120412465Y-86746777D01*
X120210549Y-86620605D01*
X120104548Y-86610520D01*
X119574544Y-86560094D02*
X120028761Y-85833196D01*
X120119613Y-85777664D01*
X120225613Y-85787749D01*
X120265996Y-85812983D01*
X119397905Y-86842777D02*
X119463522Y-86827628D01*
X119448373Y-86762010D01*
X119382756Y-86777159D01*
X119397905Y-86842777D01*
X119448373Y-86762010D01*
X118807263Y-86080644D02*
X119160542Y-85515278D01*
X119170712Y-86307752D02*
X119448289Y-85863536D01*
X119458375Y-85757535D01*
X119402842Y-85666684D01*
X119281692Y-85590981D01*
X119175691Y-85580895D01*
X119110074Y-85596044D01*
X118771859Y-85328553D02*
X118716327Y-85237701D01*
X118554794Y-85136765D01*
X118448793Y-85126679D01*
X118357941Y-85182211D01*
X118332707Y-85222594D01*
X118322622Y-85328595D01*
X118378155Y-85419447D01*
X118499304Y-85495150D01*
X118554836Y-85586001D01*
X118544751Y-85692003D01*
X118519516Y-85732386D01*
X118428665Y-85787918D01*
X118322664Y-85777833D01*
X118201515Y-85702130D01*
X118145982Y-85611278D01*
X121830808Y-86364035D02*
X121765190Y-86379184D01*
X121659190Y-86369099D01*
X121457273Y-86242927D01*
X121401740Y-86152075D01*
X121386591Y-86086458D01*
X121396677Y-85980457D01*
X121447145Y-85899691D01*
X121563231Y-85803776D01*
X122350642Y-85621988D01*
X121825659Y-85293942D01*
X120770758Y-85813945D02*
X120689991Y-85763476D01*
X120634459Y-85672625D01*
X120619310Y-85607007D01*
X120629395Y-85501007D01*
X120689949Y-85314240D01*
X120816120Y-85112323D01*
X120957441Y-84976024D01*
X121048292Y-84920492D01*
X121113910Y-84905343D01*
X121219910Y-84915428D01*
X121300677Y-84965897D01*
X121356210Y-85056749D01*
X121371359Y-85122366D01*
X121361273Y-85228367D01*
X121300720Y-85415134D01*
X121174548Y-85617051D01*
X121033228Y-85753349D01*
X120942376Y-85808882D01*
X120876759Y-85824031D01*
X120770758Y-85813945D01*
X120210329Y-84284572D02*
X120694929Y-84587383D01*
X120452629Y-84435978D02*
X119922710Y-85284026D01*
X120079179Y-85213345D01*
X120210414Y-85183047D01*
X120316415Y-85193132D01*
X118913128Y-84653169D02*
X119316961Y-84905512D01*
X119609687Y-84526914D01*
X119544069Y-84542063D01*
X119438069Y-84531978D01*
X119236152Y-84405806D01*
X119180620Y-84314955D01*
X119165471Y-84249337D01*
X119175556Y-84143336D01*
X119301728Y-83941420D01*
X119392579Y-83885888D01*
X119458197Y-83870739D01*
X119564197Y-83880824D01*
X119766114Y-84006996D01*
X119821646Y-84097847D01*
X119836795Y-84163465D01*
X118162242Y-110463991D02*
X117799149Y-109904877D01*
X117851019Y-109984750D02*
X117865021Y-109918878D01*
X117918959Y-109827071D01*
X118038770Y-109749265D01*
X118144578Y-109737332D01*
X118236385Y-109791270D01*
X118521672Y-110230574D01*
X118236385Y-109791270D02*
X118224451Y-109685461D01*
X118278390Y-109593654D01*
X118398199Y-109515849D01*
X118504008Y-109503915D01*
X118595815Y-109557853D01*
X118881102Y-109997157D01*
X119639900Y-109504388D02*
X119354612Y-109065084D01*
X119262805Y-109011146D01*
X119156997Y-109023080D01*
X118997249Y-109126821D01*
X118943311Y-109218628D01*
X119613964Y-109464452D02*
X119560026Y-109556259D01*
X119360342Y-109685935D01*
X119254534Y-109697869D01*
X119162727Y-109643931D01*
X119110856Y-109564057D01*
X119098923Y-109458249D01*
X119152861Y-109366442D01*
X119352545Y-109236766D01*
X119406483Y-109144959D01*
X119959393Y-109296907D02*
X120035604Y-108452506D01*
X119596300Y-108737793D02*
X120398697Y-109011620D01*
X121211906Y-107291152D02*
X120812538Y-107550505D01*
X121031953Y-107975806D01*
X121045955Y-107909935D01*
X121099893Y-107818128D01*
X121299577Y-107688451D01*
X121405386Y-107676518D01*
X121471257Y-107690519D01*
X121563065Y-107744458D01*
X121692741Y-107944141D01*
X121704674Y-108049950D01*
X121690673Y-108115822D01*
X121636735Y-108207629D01*
X121437051Y-108337305D01*
X121331242Y-108349239D01*
X121265370Y-108335237D01*
X122169913Y-107804600D02*
X122195848Y-107844536D01*
X122207782Y-107950345D01*
X122193780Y-108016217D01*
X121930765Y-106824319D02*
X122449943Y-106487162D01*
X122377867Y-106988202D01*
X122497678Y-106910396D01*
X122603486Y-106898462D01*
X122669358Y-106912463D01*
X122761165Y-106966402D01*
X122890841Y-107166086D01*
X122902775Y-107271894D01*
X122888773Y-107337766D01*
X122834835Y-107429573D01*
X122595214Y-107585185D01*
X122489406Y-107597118D01*
X122423534Y-107583117D01*
X122689563Y-106331551D02*
X123513758Y-106988675D01*
X123248677Y-105968458D01*
X119772492Y-111326063D02*
X119409399Y-110766949D01*
X119461270Y-110846822D02*
X119475271Y-110780950D01*
X119529209Y-110689143D01*
X119649020Y-110611337D01*
X119754829Y-110599404D01*
X119846636Y-110653342D01*
X120131923Y-111092646D01*
X119846636Y-110653342D02*
X119834702Y-110547533D01*
X119888640Y-110455726D01*
X120008450Y-110377921D01*
X120114258Y-110365987D01*
X120206065Y-110419925D01*
X120491353Y-110859229D01*
X120890719Y-110599878D02*
X120527627Y-110040764D01*
X120346080Y-109761207D02*
X120332079Y-109827079D01*
X120397951Y-109841080D01*
X120411952Y-109775209D01*
X120346080Y-109761207D01*
X120397951Y-109841080D01*
X120926993Y-109781412D02*
X121290086Y-110340526D01*
X120978863Y-109861285D02*
X120992865Y-109795414D01*
X121046803Y-109703607D01*
X121166614Y-109625800D01*
X121272422Y-109613867D01*
X121364229Y-109667805D01*
X121649517Y-110107109D01*
X122063358Y-108645994D02*
X122582535Y-108308836D01*
X122510459Y-108809876D01*
X122630270Y-108732070D01*
X122736079Y-108720136D01*
X122801950Y-108734138D01*
X122893758Y-108788077D01*
X123023434Y-108987760D01*
X123035368Y-109093569D01*
X123021366Y-109159440D01*
X122967428Y-109251247D01*
X122727807Y-109406859D01*
X122621999Y-109418793D01*
X122556127Y-109404791D01*
X122822155Y-108153225D02*
X123646351Y-108810350D01*
X123381269Y-107790132D01*
D12*
X115862172Y-96474743D02*
X117005029Y-96474743D01*
X116433600Y-97046171D02*
X116433600Y-95903314D01*
D13*
X104253300Y-103371980D02*
X104654620Y-103371980D01*
D10*
X105098000Y-93518000D02*
X104198000Y-93518000D01*
X104198000Y-92918000D02*
X105048000Y-92918000D01*
X105048000Y-92918000D02*
X105098000Y-92918000D01*
X105098000Y-92918000D02*
X104648000Y-93468000D01*
X104648000Y-93468000D02*
X104198000Y-92918000D01*
X105298000Y-93618000D02*
X105298000Y-92818000D01*
X103998000Y-93618000D02*
X103998000Y-92818000D01*
D13*
X114830000Y-88843000D02*
X114830000Y-91843000D01*
X111230000Y-91843000D02*
X111230000Y-88243000D01*
X114830000Y-103829000D02*
X114830000Y-106829000D01*
X111230000Y-106829000D02*
X111230000Y-103229000D01*
X125651777Y-95957145D02*
X125878354Y-95851491D01*
X125198623Y-96168455D02*
X124972046Y-96274109D01*
X125198623Y-96168455D02*
X125503861Y-95639938D01*
X125503861Y-95639938D02*
X125799693Y-96274353D01*
X125799693Y-96274353D02*
X125198623Y-96168455D01*
X125050707Y-95851247D02*
X125346539Y-96485662D01*
X124585094Y-97337250D02*
X126760233Y-96322966D01*
X123908905Y-95887158D02*
X126084044Y-94872874D01*
X119735600Y-95173800D02*
X117195600Y-95173800D01*
X117195600Y-96951800D02*
X119735600Y-96951800D01*
X117195600Y-96951800D02*
X117195600Y-95173800D01*
X119735600Y-95173800D02*
X119735600Y-96951800D01*
X118516400Y-87044580D02*
X119217440Y-87044580D01*
X119217440Y-87044580D02*
X119217440Y-87293500D01*
X119217440Y-89843560D02*
X119217440Y-90044220D01*
X119217440Y-90044220D02*
X118516400Y-90044220D01*
X117856000Y-106145380D02*
X118557040Y-106145380D01*
X118557040Y-106145380D02*
X118557040Y-106394300D01*
X118557040Y-108944360D02*
X118557040Y-109145020D01*
X118557040Y-109145020D02*
X117856000Y-109145020D01*
X103204449Y-90184134D02*
X101954449Y-92349197D01*
X101954449Y-92349197D02*
X101001822Y-91799197D01*
X101001822Y-91799197D02*
X102251822Y-89634134D01*
X102251822Y-89634134D02*
X103204449Y-90184134D01*
X102160315Y-89292627D02*
X100660315Y-91890704D01*
X103545956Y-90092627D02*
X102045956Y-92690704D01*
X102045956Y-92690704D02*
X100660315Y-91890704D01*
X103545956Y-90092627D02*
X102160315Y-89292627D01*
X102087591Y-87518589D02*
X99087591Y-92714742D01*
X105118680Y-89268589D02*
X102118680Y-94464742D01*
X105118680Y-89268589D02*
X102087591Y-87518589D01*
X102118680Y-94464742D02*
X99087591Y-92714742D01*
X102353041Y-105387286D02*
X101103041Y-103222223D01*
X101103041Y-103222223D02*
X102055668Y-102672223D01*
X102055668Y-102672223D02*
X103305668Y-104837286D01*
X103305668Y-104837286D02*
X102353041Y-105387286D01*
X103647175Y-104928793D02*
X102147175Y-102330716D01*
X102261534Y-105728793D02*
X100761534Y-103130716D01*
X100761534Y-103130716D02*
X102147175Y-102330716D01*
X102261534Y-105728793D02*
X103647175Y-104928793D01*
X105219899Y-105752831D02*
X102219899Y-100556678D01*
X102188810Y-107502831D02*
X99188810Y-102306678D01*
X102188810Y-107502831D02*
X105219899Y-105752831D01*
X99188810Y-102306678D02*
X102219899Y-100556678D01*
X118516148Y-98146021D02*
X118093529Y-99052328D01*
X119634252Y-99770779D02*
X120056871Y-98864472D01*
X107094400Y-88530800D02*
X108094400Y-88530800D01*
X108094400Y-86830800D02*
X107094400Y-86830800D01*
X107450000Y-110578000D02*
X108450000Y-110578000D01*
X108450000Y-108878000D02*
X107450000Y-108878000D01*
X115708800Y-97426400D02*
X115708800Y-96426400D01*
X114008800Y-96426400D02*
X114008800Y-97426400D01*
X112480800Y-100572600D02*
X113680800Y-100572600D01*
X113680800Y-102322600D02*
X112480800Y-102322600D01*
X116189200Y-90514200D02*
X117389200Y-90514200D01*
X117389200Y-92264200D02*
X116189200Y-92264200D01*
X108092800Y-104862600D02*
X106892800Y-104862600D01*
X106892800Y-103112600D02*
X108092800Y-103112600D01*
X107045200Y-106973400D02*
X108245200Y-106973400D01*
X108245200Y-108723400D02*
X107045200Y-108723400D01*
X106956300Y-84875400D02*
X108156300Y-84875400D01*
X108156300Y-86625400D02*
X106956300Y-86625400D01*
X112002600Y-85486800D02*
X112002600Y-84286800D01*
X113752600Y-84286800D02*
X113752600Y-85486800D01*
X111799400Y-98339200D02*
X111799400Y-97139200D01*
X113549400Y-97139200D02*
X113549400Y-98339200D01*
X111799400Y-94986400D02*
X111799400Y-93786400D01*
X113549400Y-93786400D02*
X113549400Y-94986400D01*
X115630400Y-100572600D02*
X116830400Y-100572600D01*
X116830400Y-102322600D02*
X115630400Y-102322600D01*
X116138400Y-103011000D02*
X117338400Y-103011000D01*
X117338400Y-104761000D02*
X116138400Y-104761000D01*
X111923800Y-109483600D02*
X111923800Y-110683600D01*
X110173800Y-110683600D02*
X110173800Y-109483600D01*
X108245200Y-94093000D02*
X107045200Y-94093000D01*
X107045200Y-92343000D02*
X108245200Y-92343000D01*
X123198725Y-95770960D02*
X123921560Y-95433896D01*
X120832840Y-90697304D02*
X121555675Y-90360240D01*
X120832840Y-104374696D02*
X121555675Y-104711760D01*
X123198725Y-99301040D02*
X123921560Y-99638104D01*
X117027200Y-85352200D02*
X115027200Y-85352200D01*
X115027200Y-83202200D02*
X117027200Y-83202200D01*
X106992800Y-106768000D02*
X107992800Y-106768000D01*
X107992800Y-105068000D02*
X106992800Y-105068000D01*
X109957500Y-84437600D02*
X109957500Y-85437600D01*
X111657500Y-85437600D02*
X111657500Y-84437600D01*
X125702577Y-99165655D02*
X125929154Y-99271309D01*
X125249423Y-98954345D02*
X125022846Y-98848691D01*
X125249423Y-98954345D02*
X125850493Y-98848447D01*
X125850493Y-98848447D02*
X125554661Y-99482862D01*
X125554661Y-99482862D02*
X125249423Y-98954345D01*
X125397339Y-98637138D02*
X125101507Y-99271553D01*
X123959705Y-99235642D02*
X126134844Y-100249926D01*
X124635894Y-97785550D02*
X126811033Y-98799834D01*
X115779360Y-93878400D02*
X116780120Y-92977600D01*
X116780120Y-92977600D02*
X116780120Y-94677600D01*
X116780120Y-94677600D02*
X115779360Y-93827600D01*
X115779360Y-92977600D02*
X115779360Y-94677600D01*
X110107700Y-89874800D02*
X110107700Y-91074800D01*
X108357700Y-91074800D02*
X108357700Y-89874800D01*
X112564600Y-110829600D02*
X112564600Y-108829600D01*
X114714600Y-108829600D02*
X114714600Y-110829600D01*
X111591000Y-95719000D02*
X111366000Y-95719000D01*
X111591000Y-100369000D02*
X111366000Y-100369000D01*
X106341000Y-100369000D02*
X106566000Y-100369000D01*
X106341000Y-95719000D02*
X106566000Y-95719000D01*
X111591000Y-95719000D02*
X111591000Y-100369000D01*
X106341000Y-95719000D02*
X106341000Y-100369000D01*
X111366000Y-95719000D02*
X111366000Y-94369000D01*
X105621400Y-96180400D02*
X105621400Y-98180400D01*
X103471400Y-98180400D02*
X103471400Y-96180400D01*
X101134600Y-98180400D02*
X101134600Y-96180400D01*
X103284600Y-96180400D02*
X103284600Y-98180400D01*
M02*
