G04 #@! TF.FileFunction,Soldermask,Top*
%FSLAX46Y46*%
G04 Gerber Fmt 4.6, Leading zero omitted, Abs format (unit mm)*
G04 Created by KiCad (PCBNEW (2015-11-29 BZR 6336, Git 7b0d981)-product) date Po 7. prosinec 2015, 17:54:50 CET*
%MOMM*%
G01*
G04 APERTURE LIST*
%ADD10C,0.100000*%
%ADD11R,1.198880X1.399540*%
%ADD12R,1.000760X1.399540*%
%ADD13R,1.198880X1.198880*%
%ADD14R,0.500000X3.300000*%
%ADD15R,1.300000X4.000000*%
%ADD16R,0.965200X1.270000*%
%ADD17R,1.800860X0.800100*%
%ADD18R,1.000000X1.250000*%
%ADD19R,1.250000X1.000000*%
%ADD20R,0.700000X1.300000*%
%ADD21R,1.300000X0.700000*%
%ADD22R,0.900000X1.700000*%
%ADD23R,1.300480X1.699260*%
%ADD24R,1.700000X0.900000*%
%ADD25R,0.450000X1.450000*%
%ADD26C,2.020000*%
%ADD27C,2.000000*%
G04 APERTURE END LIST*
D10*
D11*
X103675180Y-102293420D03*
D12*
X105394760Y-102293420D03*
X105394760Y-100093780D03*
X103494840Y-100093780D03*
D13*
X104648000Y-92168980D03*
X104648000Y-94267020D03*
D14*
X114430000Y-90043000D03*
X111630000Y-90043000D03*
D15*
X113030000Y-90043000D03*
D14*
X114430000Y-105029000D03*
X111630000Y-105029000D03*
D15*
X113030000Y-105029000D03*
D10*
G36*
X124296773Y-96837254D02*
X124106595Y-96429415D01*
X124641317Y-96180070D01*
X124831495Y-96587909D01*
X124296773Y-96837254D01*
X124296773Y-96837254D01*
G37*
G36*
X126209083Y-95945530D02*
X126018905Y-95537691D01*
X126553627Y-95288346D01*
X126743805Y-95696185D01*
X126209083Y-95945530D01*
X126209083Y-95945530D01*
G37*
D16*
X119100600Y-96062800D03*
X117830600Y-96062800D03*
D17*
X117066060Y-87594400D03*
X117066060Y-89494400D03*
X120068340Y-88544400D03*
X116405660Y-106695200D03*
X116405660Y-108595200D03*
X119407940Y-107645200D03*
D10*
G36*
X104263404Y-85654171D02*
X105649044Y-86454171D01*
X104559044Y-88342107D01*
X103173404Y-87542107D01*
X104263404Y-85654171D01*
X104263404Y-85654171D01*
G37*
G36*
X99656956Y-93623493D02*
X101042596Y-94423493D01*
X99952596Y-96311429D01*
X98566956Y-95511429D01*
X99656956Y-93623493D01*
X99656956Y-93623493D01*
G37*
G36*
X105746626Y-108569349D02*
X104360986Y-109369349D01*
X103270986Y-107481413D01*
X104656626Y-106681413D01*
X105746626Y-108569349D01*
X105746626Y-108569349D01*
G37*
G36*
X101148214Y-100595387D02*
X99762574Y-101395387D01*
X98672574Y-99507451D01*
X100058214Y-98707451D01*
X101148214Y-100595387D01*
X101148214Y-100595387D01*
G37*
G36*
X119007715Y-100581998D02*
X117874831Y-100053725D01*
X118297449Y-99147418D01*
X119430333Y-99675691D01*
X119007715Y-100581998D01*
X119007715Y-100581998D01*
G37*
G36*
X119852951Y-98769382D02*
X118720067Y-98241109D01*
X119142685Y-97334802D01*
X120275569Y-97863075D01*
X119852951Y-98769382D01*
X119852951Y-98769382D01*
G37*
D18*
X108594400Y-87680800D03*
X106594400Y-87680800D03*
X108950000Y-109728000D03*
X106950000Y-109728000D03*
D19*
X114858800Y-95926400D03*
X114858800Y-97926400D03*
D20*
X114030800Y-101447600D03*
X112130800Y-101447600D03*
X117739200Y-91389200D03*
X115839200Y-91389200D03*
X106542800Y-103987600D03*
X108442800Y-103987600D03*
X108595200Y-107848400D03*
X106695200Y-107848400D03*
X108506300Y-85750400D03*
X106606300Y-85750400D03*
D21*
X112877600Y-83936800D03*
X112877600Y-85836800D03*
X112674400Y-96789200D03*
X112674400Y-98689200D03*
X112674400Y-93436400D03*
X112674400Y-95336400D03*
D20*
X117180400Y-101447600D03*
X115280400Y-101447600D03*
X117688400Y-103886000D03*
X115788400Y-103886000D03*
D21*
X111048800Y-111033600D03*
X111048800Y-109133600D03*
D20*
X106695200Y-93218000D03*
X108595200Y-93218000D03*
D10*
G36*
X120815918Y-96827430D02*
X118491898Y-91843553D01*
X120439408Y-90935414D01*
X122763428Y-95919291D01*
X120815918Y-96827430D01*
X120815918Y-96827430D01*
G37*
G36*
X124314992Y-95195786D02*
X121990972Y-90211909D01*
X123938482Y-89303770D01*
X126262502Y-94287647D01*
X124314992Y-95195786D01*
X124314992Y-95195786D01*
G37*
G36*
X118491898Y-103228447D02*
X120815918Y-98244570D01*
X122763428Y-99152709D01*
X120439408Y-104136586D01*
X118491898Y-103228447D01*
X118491898Y-103228447D01*
G37*
G36*
X121990972Y-104860091D02*
X124314992Y-99876214D01*
X126262502Y-100784353D01*
X123938482Y-105768230D01*
X121990972Y-104860091D01*
X121990972Y-104860091D01*
G37*
D22*
X114577200Y-84277200D03*
X117477200Y-84277200D03*
D18*
X108492800Y-105918000D03*
X106492800Y-105918000D03*
D19*
X110807500Y-85937600D03*
X110807500Y-83937600D03*
D10*
G36*
X124157395Y-98693385D02*
X124347573Y-98285546D01*
X124882295Y-98534891D01*
X124692117Y-98942730D01*
X124157395Y-98693385D01*
X124157395Y-98693385D01*
G37*
G36*
X126069705Y-99585109D02*
X126259883Y-99177270D01*
X126794605Y-99426615D01*
X126604427Y-99834454D01*
X126069705Y-99585109D01*
X126069705Y-99585109D01*
G37*
D23*
X114429540Y-93827600D03*
X117929660Y-93827600D03*
D21*
X109232700Y-91424800D03*
X109232700Y-89524800D03*
D24*
X113639600Y-108379600D03*
X113639600Y-111279600D03*
D25*
X110916000Y-95094000D03*
X110266000Y-95094000D03*
X109616000Y-95094000D03*
X108966000Y-95094000D03*
X108316000Y-95094000D03*
X107666000Y-95094000D03*
X107016000Y-95094000D03*
X107016000Y-100994000D03*
X107666000Y-100994000D03*
X108316000Y-100994000D03*
X108966000Y-100994000D03*
X109616000Y-100994000D03*
X110266000Y-100994000D03*
X110916000Y-100994000D03*
D24*
X104546400Y-98630400D03*
X104546400Y-95730400D03*
X102209600Y-95730400D03*
X102209600Y-98630400D03*
D26*
X119735600Y-105460800D03*
D27*
X106476800Y-90881200D03*
M02*
